<?xml version="1.0" encoding="UTF-8"?>
<svg id="Layer_2" data-name="Layer 2" xmlns="http://www.w3.org/2000/svg" viewBox="0 0 469.19 76.33">
  <defs>
    <style>
      .cls-1 {
        fill: #07f468;
      }

      .cls-1, .cls-2 {
        stroke-width: 0px;
      }

      .cls-2 {
        fill: #fff;
      }
    </style>
  </defs>
  <g id="Layer_1-2" data-name="Layer 1">
    <g>
      <path class="cls-2" d="m12.31.72v10.73H0V.72h12.31Zm0,15.19v42.41H0V15.91h12.31Z"/>
      <path class="cls-2" d="m75.75.72v57.6h-12.31v-6.62c-4.61,4.82-12.02,7.34-21.17,7.34-13.61,0-25.27-5.69-25.27-21.89s11.67-21.96,25.27-21.96c9.15,0,16.56,2.52,21.17,7.34V.72h12.31Zm-12.31,36.44c0-8.42-6.05-11.67-17.07-11.67s-16.99,3.24-16.99,11.67,5.98,11.59,16.99,11.59,17.07-3.24,17.07-11.59Z"/>
      <path class="cls-2" d="m94.9,29h0c0,2.37,1.92,4.28,4.28,4.28h123.12c2.17,0,3.92,1.76,3.92,3.92h0c0,2.17-1.76,3.92-3.92,3.92h-123.12c-2.37,0-4.28,1.92-4.28,4.28h0c0,2.37,1.92,4.28,4.28,4.28h127.04c0,4.76-3.86,8.63-8.63,8.63h-114.54c-11.66,0-21.12-9.45-21.12-21.12h0c0-11.66,9.45-21.12,21.12-21.12h114.54c4.76,0,8.63,3.86,8.63,8.63h0s-127.04,0-127.04,0c-2.37,0-4.28,1.92-4.28,4.28Z"/>
      <path class="cls-2" d="m294.73,34.85l-.14,23.47h-12.39v-18.79c0-9-3.02-13.68-13.18-13.68-8.28,0-17.21,4.25-21.03,8.71v23.76h-12.31V15.91h12.31v7.42c6.05-4.75,14.4-8.14,24.7-8.14,11.31,0,21.89,4.03,22.03,19.66Z"/>
      <path class="cls-2" d="m320.51,26.21v12.24c0,8.21,1.58,10.3,9.07,10.3,3.89,0,6.05,0,11.02-.72v9.94c-4.1.72-8.78,1.08-14.47,1.08-10.95,0-18-4.1-18-13.47v-19.37h-11.16v-10.3h11.16V7.13l12.38-3.53v12.31h20.09v10.3h-20.09Z"/>
      <path class="cls-2" d="m357.95.72v10.73h-12.31V.72h12.31Zm0,15.19v42.41h-12.31V15.91h12.31Z"/>
      <path class="cls-1" d="m385.74,15.91h17.93v10.3h-17.93v32.11h-12.38V26.21h-11.16v-10.3h11.16v-3.17c0-8.64,5.18-12.75,17.57-12.75,4.25,0,6.48,0,12.75.72v8.71c-2.81-.22-5.69-.36-8.86-.36-7.06,0-8.86,1.51-9.07,6.84Z"/>
      <path class="cls-1" d="m469.19,15.91l-28.66,60.41h-13.61l8.57-18h-6.34l-21.96-42.41h13.68l18.15,35,16.56-35h13.61Z"/>
    </g>
  </g>
</svg>