<svg xmlns="http://www.w3.org/2000/svg" id="Layer_2" data-name="Layer 2" viewBox="0 0 862.97 204.33"><defs><style>.cls-1{letter-spacing:-.05em}.cls-2{fill:#07f468}.cls-2,.cls-3{stroke-width:0}.cls-4{letter-spacing:-.01em}.cls-5{letter-spacing:-.05em}.cls-6{letter-spacing:-.02em}.cls-7{letter-spacing:-.01em}.cls-3,.cls-8{fill:#fff}.cls-9{letter-spacing:-.03em}.cls-10{letter-spacing:-.02em}.cls-8{font-family:MonumentExtended-Regular,&apos;Monument Extended&apos;;font-size:43.7px}</style></defs><g id="Layer_1-2" data-name="Layer 1"><g id="Layer_1-2" data-name="Layer 1-2"><g><path d="m22.43,66.57v19.55H0v-19.55h22.43Zm0,27.68v77.28H0v-77.28h22.43Z" class="cls-3"/><path d="m138.03,66.57v104.96h-22.43v-12.06c-8.4,8.78-21.9,13.38-38.58,13.38-24.8,0-46.05-10.37-46.05-39.89s21.27-40.02,46.05-40.02c16.67,0,30.18,4.59,38.58,13.38v-39.74h22.43Zm-22.43,66.4c0-15.34-11.02-21.27-31.11-21.27s-30.96,5.9-30.96,21.27,10.9,21.12,30.96,21.12,31.11-5.9,31.11-21.12Z" class="cls-3"/><path d="m172.93,118.1h0c0,4.32,3.5,7.8,7.8,7.8h224.35c3.95,0,7.14,3.21,7.14,7.14h0c0,3.95-3.21,7.14-7.14,7.14h-224.35c-4.32,0-7.8,3.5-7.8,7.8h0c0,4.32,3.5,7.8,7.8,7.8h231.5c0,8.67-7.03,15.73-15.73,15.73h-208.72c-21.25,0-38.49-17.22-38.49-38.49h0c0-21.25,17.22-38.49,38.49-38.49h208.72c8.67,0,15.73,7.03,15.73,15.73h-231.5c-4.32,0-7.8,3.5-7.8,7.8v.04Z" class="cls-3"/><path d="m537.06,128.76l-.26,42.77h-22.58v-34.24c0-16.4-5.5-24.93-24.02-24.93-15.09,0-31.36,7.74-38.32,15.87v43.3h-22.43v-77.28h22.43v13.52c11.02-8.66,26.24-14.83,45.01-14.83,20.61,0,39.89,7.34,40.14,35.82h.02Z" class="cls-3"/><path d="m584.04,113.02v22.3c0,14.96,2.88,18.77,16.53,18.77,7.09,0,11.02,0,20.08-1.31v18.11c-7.47,1.31-16,1.97-26.37,1.97-19.95,0-32.8-7.47-32.8-24.55v-35.3h-20.34v-18.77h20.34v-16l22.56-6.43v22.43h36.61v18.77s-36.61,0-36.61,0Z" class="cls-3"/><path d="m652.27,66.57v19.55h-22.43v-19.55h22.43Zm0,27.68v77.28h-22.43v-77.28h22.43Z" class="cls-3"/><path d="m702.91,94.25h32.67v18.77h-32.67v58.51h-22.56v-58.51h-20.34v-18.77h20.34v-5.78c0-15.74,9.44-23.23,32.02-23.23,7.74,0,11.81,0,23.23,1.31v15.87c-5.12-.4-10.37-.66-16.14-.66-12.86,0-16.14,2.75-16.53,12.46l-.02.02Z" class="cls-2"/><path d="m854.97,94.25l-52.22,110.08h-24.8l15.62-32.8h-11.55l-40.02-77.28h24.93l33.07,63.78,30.18-63.78h24.8Z" class="cls-2"/></g></g><text class="cls-8" transform="translate(411.97 37.15)"><tspan x="0" y="0" class="cls-4">c</tspan><tspan x="37.85" y="0" class="cls-5">r</tspan><tspan x="66.6" y="0" class="cls-9">e</tspan><tspan x="103.79" y="0" class="cls-1">a</tspan><tspan x="139.8" y="0" class="cls-6">t</tspan><tspan x="168.17" y="0" class="cls-10">e</tspan><tspan x="205.75" y="0" xml:space="preserve">d </tspan><tspan x="284.67" y="0" class="cls-4">us</tspan><tspan x="361.72" y="0">i</tspan><tspan x="372.95" y="0" class="cls-7">n</tspan><tspan x="412.02" y="0">g</tspan></text></g></svg>