<svg xmlns="http://www.w3.org/2000/svg" id="Layer_2" data-name="Layer 2" viewBox="0 0 854.97 191.14"><defs><style>.cls-1,.cls-2{fill:#07913f;stroke-width:0}.cls-2{fill:#18181b}</style></defs><g id="Layer_1-2" data-name="Layer 1"><g><g id="Layer_1-2" data-name="Layer 1-2"><g><path d="m22.43,53.38v19.55H0v-19.55h22.43Zm0,27.68v77.28H0v-77.28h22.43Z" class="cls-2"/><path d="m138.03,53.38v104.96h-22.43v-12.06c-8.4,8.78-21.9,13.38-38.58,13.38-24.8,0-46.05-10.37-46.05-39.89s21.27-40.02,46.05-40.02c16.67,0,30.18,4.59,38.58,13.38v-39.74h22.43Zm-22.43,66.4c0-15.34-11.02-21.27-31.11-21.27s-30.96,5.9-30.96,21.27,10.9,21.12,30.96,21.12,31.11-5.9,31.11-21.12Z" class="cls-2"/><path d="m172.93,104.91h0c0,4.32,3.5,7.8,7.8,7.8h224.35c3.95,0,7.14,3.21,7.14,7.14h0c0,3.95-3.21,7.14-7.14,7.14h-224.35c-4.32,0-7.8,3.5-7.8,7.8h0c0,4.32,3.5,7.8,7.8,7.8h231.5c0,8.67-7.03,15.73-15.73,15.73h-208.72c-21.25,0-38.49-17.22-38.49-38.49h0c0-21.25,17.22-38.49,38.49-38.49h208.72c8.67,0,15.73,7.03,15.73,15.73h-231.5c-4.32,0-7.8,3.5-7.8,7.8v.04Z" class="cls-2"/><path d="m537.06,115.57l-.26,42.77h-22.58v-34.24c0-16.4-5.5-24.93-24.02-24.93-15.09,0-31.36,7.74-38.32,15.87v43.3h-22.43v-77.28h22.43v13.52c11.02-8.66,26.24-14.83,45.01-14.83,20.61,0,39.89,7.34,40.14,35.82h.02Z" class="cls-2"/><path d="m584.04,99.83v22.3c0,14.96,2.88,18.77,16.53,18.77,7.09,0,11.02,0,20.08-1.31v18.11c-7.47,1.31-16,1.97-26.37,1.97-19.95,0-32.8-7.47-32.8-24.55v-35.3h-20.34v-18.77h20.34v-16l22.56-6.43v22.43h36.61v18.77s-36.61,0-36.61,0Z" class="cls-2"/><path d="m652.27,53.38v19.55h-22.43v-19.55h22.43Zm0,27.68v77.28h-22.43v-77.28h22.43Z" class="cls-2"/><path d="m702.91,81.06h32.67v18.77h-32.67v58.51h-22.56v-58.51h-20.34v-18.77h20.34v-5.78c0-15.74,9.44-23.23,32.02-23.23,7.74,0,11.81,0,23.23,1.31v15.87c-5.12-.4-10.37-.66-16.14-.66-12.86,0-16.14,2.75-16.53,12.46l-.02.02Z" class="cls-1"/><path d="m854.97,81.06l-52.22,110.08h-24.8l15.62-32.8h-11.55l-40.02-77.28h24.93l33.07,63.78,30.18-63.78h24.8Z" class="cls-1"/></g></g><g><path d="m520.51,22.11c0,9.83-7.04,13.29-15.34,13.29-5.55,0-10.01-1.49-12.8-4.41v14.9h-7.52V9.22h7.52v3.98c2.8-2.88,7.25-4.41,12.8-4.41,8.3,0,15.34,3.5,15.34,13.33Zm-7.47,0c0-5.11-3.67-7.08-10.36-7.08s-10.31,1.97-10.31,7.08,3.63,7.04,10.31,7.04,10.36-1.97,10.36-7.04Z" class="cls-2"/><path d="m522.91,22.11c0-9.48,7.17-13.33,17.83-13.33s17.83,3.85,17.83,13.33-7.21,13.29-17.83,13.29-17.83-3.85-17.83-13.29Zm28.14,0c0-5.38-3.41-7.08-10.31-7.08s-10.36,1.7-10.36,7.08,3.41,7.04,10.36,7.04,10.31-1.7,10.31-7.04Z" class="cls-2"/><path d="m615.17,9.22l-11.58,25.74h-9.96l-7.56-17.92-7.56,17.92h-9.96l-11.58-25.74h8.35l8.43,19.88,7.87-19.88h8.92l7.87,19.84,8.43-19.84h8.35Z" class="cls-2"/><path d="m641.39,25.74h7.43c-1.71,6.55-8.08,9.66-17.61,9.66s-17.39-3.85-17.39-13.29,7.39-13.33,17.83-13.33c9.79,0,17.61,3.36,17.61,15.08h-27.79c.83,4.11,4.76,5.46,9.75,5.46s8.3-.96,10.18-3.58Zm-19.67-6.64h19.54c-1.27-3.63-4.94-4.63-9.66-4.63-5.11,0-8.7,1.01-9.88,4.63Z" class="cls-2"/><path d="m679.71,9.66v6.25c-2.45-.61-4.41-.87-6.6-.87-4.2,0-9,.96-13.55,4.5v15.43h-7.47V9.22h7.47v4.37c3.85-3.45,8.39-4.81,13.2-4.81,3.06,0,5.2.44,6.95.87Z" class="cls-2"/><path d="m707.99,25.74h7.43c-1.71,6.55-8.08,9.66-17.61,9.66s-17.39-3.85-17.39-13.29,7.39-13.33,17.83-13.33c9.79,0,17.61,3.36,17.61,15.08h-27.79c.83,4.11,4.76,5.46,9.75,5.46s8.3-.96,10.18-3.58Zm-19.67-6.64h19.54c-1.27-3.63-4.94-4.63-9.66-4.63-5.11,0-8.7,1.01-9.88,4.63Z" class="cls-2"/><path d="m753.66,0v34.96h-7.47v-4.02c-2.8,2.93-7.3,4.46-12.85,4.46-8.26,0-15.34-3.45-15.34-13.29s7.08-13.33,15.34-13.33c5.55,0,10.05,1.53,12.85,4.46V0h7.47Zm-7.47,22.11c0-5.11-3.67-7.08-10.36-7.08s-10.31,1.97-10.31,7.08,3.63,7.04,10.31,7.04,10.36-1.97,10.36-7.04Z" class="cls-2"/><path d="m813.05,22.11c0,9.83-7.08,13.29-15.34,13.29-5.55,0-10.05-1.53-12.85-4.46v4.02h-7.47V0h7.47v13.24c2.8-2.93,7.3-4.46,12.85-4.46,8.26,0,15.34,3.5,15.34,13.33Zm-7.52,0c0-5.11-3.63-7.08-10.31-7.08s-10.36,1.97-10.36,7.08,3.67,7.04,10.36,7.04,10.31-1.97,10.31-7.04Z" class="cls-2"/><path d="m849.06,9.22l-17.39,36.67h-8.26l5.2-10.93h-3.85l-13.33-25.74h8.3l11.01,21.24,10.05-21.24h8.26Z" class="cls-2"/></g></g></g></svg>